<svg width="46" height="46" viewBox="0 0 24 24" fill="none" xmlns="http://www.w3.org/2000/svg">
<g clip-path="url(#clip0_2342_9632)">
<path d="M19.75 0H4.25003C1.9028 0 0 1.95161 0 4.35904V19.641C0 22.0484 1.9028 24 4.25003 24H19.75C22.0972 24 24 22.0484 24 19.641V4.35904C24 1.95161 22.0972 0 19.75 0Z" fill="#330000"/>
<path d="M11.63 14.4031H7.91068L7.15424 16.8138C7.14425 16.858 7.11938 16.8971 7.08401 16.9244C7.04864 16.9516 7.00505 16.9651 6.9609 16.9626H5.07732C4.9697 16.9626 4.93216 16.9019 4.9647 16.7806L8.18472 7.26745C8.216 7.16831 8.24823 7.05601 8.28139 6.93055C8.32319 6.71011 8.34472 6.48613 8.34567 6.26156C8.34375 6.24827 8.34442 6.23473 8.34763 6.22172C8.35085 6.2087 8.35655 6.19647 8.3644 6.18572C8.37226 6.17498 8.38211 6.16594 8.3934 6.15913C8.40468 6.15232 8.41717 6.14788 8.43014 6.14605C8.43947 6.1446 8.44896 6.1446 8.45829 6.14605H11.0181C11.0932 6.14605 11.1359 6.17348 11.1471 6.22835L14.8017 16.797C14.834 16.9067 14.8017 16.9621 14.705 16.9621H12.6121C12.5762 16.9662 12.54 16.9567 12.5104 16.9354C12.4808 16.9142 12.4597 16.8826 12.4512 16.8466L11.63 14.4031ZM8.49067 12.321H11.034C10.9699 12.1006 10.8948 11.8529 10.8088 11.5779C10.7228 11.3029 10.6316 11.0084 10.5352 10.6942L10.2452 9.75332C10.1485 9.43951 10.06 9.13662 9.97962 8.84464C9.89922 8.55266 9.82617 8.28634 9.76047 8.0457H9.74452C9.65383 8.49156 9.54091 8.93236 9.40619 9.36636C9.25603 9.86209 9.10305 10.3686 8.94726 10.8858C8.79147 11.403 8.63927 11.8814 8.49067 12.321Z" fill="#FF9A00"/>
<path d="M16.9747 7.89699C16.8105 7.9037 16.6467 7.8748 16.4942 7.81218C16.3416 7.74957 16.2036 7.65465 16.0892 7.53362C15.9751 7.40731 15.8866 7.2591 15.8286 7.09754C15.7706 6.93597 15.7444 6.76423 15.7514 6.59221C15.7458 6.42225 15.7751 6.25298 15.8376 6.09543C15.9 5.93788 15.994 5.79557 16.1136 5.67776C16.232 5.56117 16.3718 5.46976 16.5248 5.4088C16.6778 5.34785 16.8411 5.31854 17.0052 5.32257C17.3916 5.32257 17.6947 5.44097 17.9146 5.67776C18.1377 5.92602 18.2558 6.25483 18.2431 6.59221C18.2499 6.76493 18.2227 6.93728 18.1632 7.09901C18.1037 7.26073 18.0131 7.40854 17.8968 7.53362C17.7757 7.656 17.6314 7.75144 17.4727 7.81397C17.314 7.87649 17.1445 7.90476 16.9747 7.89699ZM15.864 16.797V8.90385C15.864 8.8047 15.9067 8.75513 15.9925 8.75513H17.9723C18.0577 8.75513 18.1009 8.80326 18.1009 8.90385V16.797C18.1009 16.9067 18.0582 16.9621 17.9723 16.9621H16.009C15.9123 16.9626 15.864 16.9072 15.864 16.797Z" fill="#FF9A00"/>
</g>
<defs>
<clipPath id="clip0_2342_9632">
<rect width="24" height="24" fill="white"/>
</clipPath>
</defs>
</svg>
