<svg width="46" height="46" viewBox="0 0 24 24" fill="none" xmlns="http://www.w3.org/2000/svg">
<g clip-path="url(#clip0_2339_9605)">
<path d="M20.99 10.0625C20.99 12.6975 19.7345 14.2444 18.665 15.0876C18.0171 15.596 17.4405 15.844 17.2452 15.9184L13.5965 17.4219C13.5531 17.4405 13.5345 17.4932 13.5593 17.5366L14.0708 18.3209C14.2537 18.6123 14.325 18.8882 14.325 19.2137C14.325 20.3979 13.2865 20.68 12.7471 20.68C11.8574 20.68 11.5009 20.0724 11.2064 19.6043L9.30611 16.6035C9.10461 16.2842 9.24101 15.8626 9.58821 15.72L16.1199 13.0323C16.5353 12.868 17.89 12.1674 17.89 10.0625C17.89 8.28001 16.34 6.26501 13.705 6.26501C12.6975 6.26501 11.38 6.80751 11.38 6.80751L7.31901 8.47221C6.11001 8.97131 6.11001 9.43011 6.11001 9.67501C6.11001 9.68741 6.16891 10.76 7.50501 10.76C7.64141 10.76 8.05371 10.698 8.62101 10.4655L12.651 8.79771C13.488 8.45361 14.79 8.90001 14.79 10.1772C14.79 10.8778 14.3839 11.1289 13.7701 11.38L11.2622 12.4154L9.79901 13.0199C8.97131 13.3609 8.00101 13.55 7.35001 13.55C4.71501 13.55 3.01001 11.7334 3.01001 9.67501C3.01001 8.40711 3.55251 6.67111 6.14101 5.60781C6.14101 5.60781 6.14101 5.60781 7.54531 5.03121C8.13121 4.78631 8.96201 4.44531 10.14 3.95861C10.5213 3.80051 10.9057 3.64241 11.4079 3.52151C11.9163 3.40061 12.5394 3.32001 13.395 3.32001C18.355 3.32001 20.99 7.04001 20.99 10.0625Z" fill="#ACB7D0"/>
<path d="M13.0076 4.87931C13.1316 4.87311 13.2587 4.87001 13.3951 4.87001C16.1696 4.87001 17.9468 6.27369 18.8126 7.82958C19.1939 8.51499 20.038 8.79213 20.7631 8.49298L20.7644 8.49236C20.0318 5.8896 17.5171 3.32001 13.3951 3.32001C12.5395 3.32001 11.9164 3.40061 11.408 3.52151C11.5072 4.31201 12.1954 4.90721 13.0076 4.87931Z" fill="#BFC9DB"/>
<path d="M12.9175 20.6707C12.8555 20.6769 12.7997 20.68 12.747 20.68C11.8573 20.68 11.5008 20.0724 11.2063 19.6043L9.30599 16.6035C9.17579 16.3989 9.18509 16.154 9.30289 15.9649C9.97249 15.7262 10.7413 15.9711 11.135 16.5973L12.8028 19.2323C13.088 19.6787 13.1128 20.2181 12.9175 20.6707Z" fill="#9BA7BC"/>
<path d="M11.2622 12.4154L9.79901 13.0199C8.97131 13.3609 8.00101 13.55 7.35001 13.55C4.71501 13.55 3.01001 11.7334 3.01001 9.67499C3.01001 8.40709 3.55251 6.67109 6.14101 5.60779C6.14101 5.60779 6.14101 5.60779 7.54531 5.03119C7.86771 5.81859 7.49261 6.72069 6.70521 7.05239C5.26061 7.65379 4.56001 8.50939 4.56001 9.67499C4.56001 10.8313 5.51791 12 7.35001 12C7.77781 12 8.55281 11.8574 9.21001 11.5877L9.24101 11.5753C10.0315 11.2498 10.9336 11.628 11.2622 12.4154Z" fill="#9BA7BC"/>
<path d="M12.7471 20.99C11.711 20.99 11.2646 20.2807 10.9689 19.8114L9.04441 16.77C8.89933 16.5403 8.86368 16.2606 8.94614 16.0021C9.0286 15.7436 9.21956 15.5362 9.47066 15.433L16.0052 12.7428C16.3747 12.5971 17.58 11.9737 17.58 10.0625C17.58 8.3851 16.0985 6.57501 13.705 6.57501C12.7697 6.57501 11.5105 7.08899 11.4981 7.09426L7.43768 8.7602C6.41995 9.17932 6.41995 9.50172 6.41995 9.67501C6.42522 9.73949 6.50365 10.45 7.50495 10.45C7.59206 10.45 7.9622 10.4001 8.5016 10.1778L12.5319 8.51158C13.1057 8.27567 13.815 8.35007 14.3392 8.7013C14.829 9.02959 15.0987 9.5538 15.0987 10.1784C15.0987 11.0914 14.5004 11.4141 13.8879 11.6664L9.91861 13.3073C9.10362 13.6433 8.0955 13.86 7.34995 13.86C4.69914 13.86 2.69995 12.0608 2.69995 9.67501C2.69995 8.31225 3.27624 6.4507 6.0216 5.32013L10.0218 3.6731C10.8161 3.34605 11.632 3.01001 13.395 3.01001C18.2775 3.01001 21.3 6.6708 21.3 10.0625C21.3 14.4496 18.0152 15.9519 17.3571 16.2083L13.9731 17.6017L14.3305 18.1517C14.5416 18.4861 14.635 18.8126 14.635 19.2137C14.635 20.4342 13.6563 20.99 12.7471 20.99ZM16.2352 13.3184L9.70688 16.0061C9.59559 16.0517 9.55281 16.1413 9.537 16.1903C9.5215 16.2396 9.50476 16.3369 9.56893 16.4386L11.494 19.4809C11.7687 19.918 12.0533 20.37 12.7471 20.37C12.8766 20.37 14.015 20.3378 14.015 19.214C14.015 18.9332 13.9533 18.7155 13.8085 18.4861L13.3007 17.7043C13.2372 17.6036 13.222 17.4848 13.257 17.3754C13.292 17.266 13.3729 17.1782 13.4793 17.1345L17.1264 15.6326C17.7244 15.3998 20.68 14.0463 20.68 10.0625C20.68 6.96902 17.8946 3.63001 13.395 3.63001C11.7547 3.63001 11.0303 3.92823 10.263 4.24412L6.25782 5.89332C3.82959 6.89307 3.31995 8.50166 3.31995 9.67501C3.31995 11.7074 5.05254 13.24 7.34995 13.24C7.89958 13.24 8.83423 13.0838 9.68208 12.7344L13.6513 11.0936C14.262 10.8422 14.4787 10.6661 14.4787 10.1788C14.4787 9.65176 14.2152 9.3647 13.9942 9.21652C13.6423 8.98092 13.1497 8.92791 12.7681 9.08477L8.73813 10.751C8.1265 11.0027 7.67514 11.07 7.50495 11.07C6.11305 11.07 5.79995 10.0368 5.79995 9.67501C5.79995 9.22458 5.96673 8.69541 7.20208 8.1867L11.2625 6.52076C11.318 6.49782 12.6482 5.95501 13.705 5.95501C16.4813 5.95501 18.2 8.08719 18.2 10.0625C18.2 12.3612 16.6992 13.1349 16.2352 13.3184Z" fill="#8D6C9F"/>
<path d="M7.12583 17.2062C7.004 17.2062 6.88837 17.1339 6.83908 17.014C6.77398 16.8556 6.84931 16.6745 7.00772 16.6091L7.58091 16.3729C7.73901 16.3081 7.92036 16.3831 7.98577 16.5415C8.05087 16.6999 7.97554 16.881 7.81713 16.9464L7.24394 17.1826C7.20519 17.1987 7.1652 17.2062 7.12583 17.2062Z" fill="#8D6C9F"/>
<path d="M7.92417 18.4675C7.80234 18.4675 7.68671 18.3953 7.63742 18.2753C7.57232 18.1169 7.64765 17.9359 7.80606 17.8705L8.37925 17.6342C8.53704 17.5691 8.7187 17.6445 8.78411 17.8029C8.84921 17.9613 8.77388 18.1423 8.61547 18.2077L8.04228 18.444C8.00322 18.4598 7.96354 18.4675 7.92417 18.4675Z" fill="#8D6C9F"/>
<path d="M8.72202 19.7289C8.60019 19.7289 8.48456 19.6567 8.43527 19.5367C8.37017 19.3783 8.4455 19.1973 8.60391 19.1319L9.17741 18.8957C9.3352 18.8303 9.51686 18.9059 9.58227 19.0643C9.64737 19.2227 9.57204 19.4038 9.41363 19.4692L8.84013 19.7054C8.80138 19.7212 8.76139 19.7289 8.72202 19.7289Z" fill="#8D6C9F"/>
<path d="M9.51987 20.99C9.39804 20.99 9.28241 20.9178 9.23312 20.7978C9.16802 20.6394 9.24335 20.4583 9.40176 20.3929L9.97495 20.1567C10.1327 20.0916 10.3144 20.1669 10.3798 20.3253C10.4449 20.4838 10.3696 20.6648 10.2112 20.7302L9.63798 20.9664C9.59923 20.9825 9.55924 20.99 9.51987 20.99Z" fill="#8D6C9F"/>
<path d="M18.8129 8.13958C18.7041 8.13958 18.5984 8.08223 18.5417 7.98024C18.1189 7.22012 17.0999 5.87007 15.0275 5.36973C14.8611 5.32943 14.7588 5.16203 14.7991 4.99556C14.8394 4.82909 15.0077 4.72772 15.1732 4.76709C16.8795 5.17939 18.2683 6.21324 19.0839 7.67892C19.1673 7.82865 19.1133 8.01744 18.9636 8.10052C18.9156 8.12718 18.8638 8.13958 18.8129 8.13958Z" fill="#8D6C9F"/>
<path d="M13.8603 5.1949C13.8541 5.1949 13.8476 5.1949 13.8414 5.19428C13.6957 5.1856 13.5472 5.18002 13.395 5.18002L13.2456 5.18374C13.0791 5.18033 12.9331 5.05044 12.93 4.87901C12.9272 4.70789 13.0633 4.56653 13.2344 4.56343L13.2908 4.56188C13.4781 4.55599 13.6854 4.56343 13.8783 4.57521C14.0491 4.58544 14.1796 4.73207 14.169 4.90319C14.1594 5.06811 14.023 5.1949 13.8603 5.1949Z" fill="#8D6C9F"/>
</g>
<defs>
<clipPath id="clip0_2339_9605">
<rect width="24" height="24" fill="white"/>
</clipPath>
</defs>
</svg>
