<svg width="36" height="42" viewBox="0 0 18 24" fill="none" xmlns="http://www.w3.org/2000/svg">
<path fill-rule="evenodd" clip-rule="evenodd" d="M17.3764 7.08116C17.4734 7.94823 17.5112 8.81881 17.49 9.6928C17.0248 13.063 15.2459 15.457 12.1532 16.8748C10.398 17.5677 8.60011 17.7097 6.75959 17.3006C6.53238 17.1808 6.28637 17.1051 6.02152 17.0735C5.40012 16.8858 4.81341 16.6208 4.26151 16.2787C4.21421 18.2844 4.18583 20.2905 4.17635 22.2968C4.09629 22.8738 3.84081 23.3469 3.40989 23.7161C3.01105 23.8242 2.61362 23.9189 2.21762 24C1.81526 23.9515 1.41784 23.8758 1.02535 23.7729C0.492354 23.4266 0.189518 22.9346 0.11696 22.2968C0.126442 18.1522 0.11696 14.0076 0.088573 9.86312C0.0782967 9.68172 0.0499094 9.5114 0.00341102 9.35215C-0.0813535 5.72646 1.41369 2.97289 4.48861 1.09144C7.70994 -0.517836 10.8325 -0.347512 13.8564 1.60241C15.7372 2.96909 16.9106 4.7953 17.3764 7.08116Z" fill="#E5E5E5"/>
<path fill-rule="evenodd" clip-rule="evenodd" d="M8.37441 0.552063C8.67719 0.552063 8.98003 0.552063 9.28281 0.552063C9.18056 1.93401 9.06701 3.31557 8.94216 4.69661C8.5645 4.694 8.19546 4.75077 7.83506 4.86693C7.78776 4.84803 7.74041 4.82907 7.69312 4.81016C7.09875 3.63084 6.51209 2.44805 5.93311 1.26175C5.9867 1.17789 6.06238 1.12112 6.1602 1.09142C6.88675 0.832814 7.62482 0.653008 8.37441 0.552063Z" fill="#EB8120"/>
<path fill-rule="evenodd" clip-rule="evenodd" d="M10.5885 0.6656C10.7029 0.746447 10.8353 0.784259 10.9859 0.77915C11.4518 0.880776 11.906 1.02271 12.3485 1.20496C12.4714 1.25685 12.5849 1.32311 12.6891 1.40367C12.0407 2.56795 11.4067 3.74131 10.7872 4.9237C10.7553 4.95333 10.7175 4.97224 10.6736 4.98047C10.2997 4.8265 9.91173 4.73186 9.50977 4.6966C9.52617 4.16445 9.56399 3.63457 9.62331 3.10691C9.71291 2.81832 9.75077 2.51554 9.73686 2.19852C9.77888 1.66892 9.81675 1.13904 9.85041 0.608826C10.0978 0.613708 10.3438 0.632671 10.5885 0.6656Z" fill="#E4551C"/>
<path fill-rule="evenodd" clip-rule="evenodd" d="M5.30861 1.4605C5.35834 1.45306 5.39621 1.47197 5.42216 1.51727C6.01778 2.69904 6.60443 3.88188 7.18217 5.06569C6.77532 5.38073 6.38738 5.73086 6.01829 6.11602C4.9771 5.2355 3.94567 4.34601 2.92407 3.44761C3.17649 3.10986 3.46037 2.7976 3.77569 2.51083C4.27071 2.13135 4.78168 1.78127 5.30861 1.4605Z" fill="#EFB616"/>
<path fill-rule="evenodd" clip-rule="evenodd" d="M13.1433 1.6308C14.0587 2.09902 14.8345 2.7425 15.4711 3.56114C14.4514 4.45006 13.4295 5.33949 12.4053 6.22954C12.0317 5.86505 11.6532 5.51498 11.2698 5.17921C11.917 4.00772 12.5415 2.82494 13.1433 1.6308Z" fill="#E33AA3"/>
<path fill-rule="evenodd" clip-rule="evenodd" d="M1.13877 8.15989C0.987349 8.15989 0.835988 8.15989 0.68457 8.15989C0.68457 7.97066 0.68457 7.78137 0.68457 7.59214C0.853475 6.21366 1.36445 4.98352 2.21749 3.90179C3.25504 4.74047 4.26756 5.61099 5.25493 6.51343C5.2928 6.5702 5.2928 6.62698 5.25493 6.68375C4.99825 7.10366 4.83741 7.55785 4.77234 8.04634C3.56191 8.10522 2.35074 8.14303 1.13877 8.15989Z" fill="#F3F326"/>
<path fill-rule="evenodd" clip-rule="evenodd" d="M17.1176 6.79728C17.1125 6.94784 17.1503 7.0803 17.2312 7.1947C17.2743 7.57265 17.3122 7.95111 17.3447 8.33019C15.9623 8.32474 14.5807 8.28687 13.2002 8.21664C13.1653 7.67677 12.995 7.18471 12.6892 6.7405C13.7301 5.83211 14.771 4.92371 15.8118 4.01532C16.4533 4.84037 16.8886 5.76767 17.1176 6.79728Z" fill="#A537BA"/>
<path fill-rule="evenodd" clip-rule="evenodd" d="M3.12601 8.67084C3.63698 8.67084 4.14796 8.67084 4.65893 8.67084C4.64133 8.85325 4.66023 9.02358 4.7157 9.18181C4.73574 9.43236 4.78304 9.67836 4.85764 9.91988C4.96562 10.1875 5.06021 10.4524 5.14151 10.7147C4.06711 11.5595 2.99782 12.4111 1.93375 13.2696C1.15962 12.1016 0.724333 10.8147 0.62793 9.40891C0.62793 9.20071 0.62793 8.99258 0.62793 8.78439C1.20595 8.80295 1.7737 8.78405 2.33117 8.72761C2.59761 8.72534 2.86252 8.70644 3.12601 8.67084Z" fill="#B9FF24"/>
<path fill-rule="evenodd" clip-rule="evenodd" d="M13.2567 8.69922C14.6189 8.75599 15.9815 8.81277 17.3445 8.86954C17.3182 10.4903 16.8545 11.9664 15.9535 13.298C14.9316 12.3896 13.9096 11.4812 12.8877 10.5728C13.0003 10.1251 13.1138 9.67092 13.2283 9.21019C13.2566 9.04089 13.2661 8.87056 13.2567 8.69922Z" fill="#2077C3"/>
<path fill-rule="evenodd" clip-rule="evenodd" d="M12.5188 11.0554C13.588 11.9228 14.6288 12.8312 15.6414 13.7806C14.9545 14.7004 14.1029 15.4195 13.0866 15.938C12.9502 15.7606 12.8272 15.5713 12.7175 15.3703C12.2339 14.3573 11.7513 13.3448 11.2698 12.3328C11.5775 12.0729 11.8803 11.7985 12.1782 11.5096C12.3149 11.3732 12.4285 11.2218 12.5188 11.0554Z" fill="#2AA0E1"/>
<path fill-rule="evenodd" clip-rule="evenodd" d="M5.76274 11.1689C5.97746 11.3365 6.16669 11.5352 6.33049 11.765C6.55639 11.9726 6.8024 12.1523 7.06856 12.3044C6.49474 13.5088 5.93647 14.72 5.39371 15.938C5.36186 15.9676 5.32399 15.9865 5.28016 15.9947C4.21109 15.4748 3.33108 14.7273 2.64014 13.7521C3.6832 12.8905 4.72405 12.0294 5.76274 11.1689Z" fill="#80D11B"/>
<path fill-rule="evenodd" clip-rule="evenodd" d="M8.94181 14.9728C8.94181 15.6352 8.94181 16.2975 8.94181 16.9599C8.79039 16.9599 8.63903 16.9599 8.48761 16.9599C7.6277 16.8848 6.79504 16.6861 5.98953 16.3638C5.92855 16.3218 5.89068 16.2651 5.87598 16.1935C6.40875 14.9486 6.9765 13.728 7.57922 12.5315C8.00236 12.7353 8.44713 12.8488 8.91342 12.8721C8.94181 13.5721 8.95129 14.2723 8.94181 14.9728Z" fill="#27B025"/>
<path fill-rule="evenodd" clip-rule="evenodd" d="M9.50977 16.7328C9.50977 15.4459 9.50977 14.1591 9.50977 12.8721C9.63955 12.8667 9.7531 12.8289 9.85041 12.7586C10.1532 12.7231 10.4466 12.6474 10.7304 12.5315C11.3453 13.6857 11.9321 14.859 12.4904 16.0515C12.5183 16.1249 12.5277 16.2007 12.5188 16.2786C11.5562 16.6754 10.5532 16.9025 9.50977 16.9599C9.50977 16.8842 9.50977 16.8085 9.50977 16.7328Z" fill="#22DCDC"/>
</svg>
