<svg width="180" height="46" viewBox="0 0 180 46" fill="none" xmlns="http://www.w3.org/2000/svg">
<path fill-rule="evenodd" clip-rule="evenodd" d="M20.8595 15.9063C20.8595 16.8333 20.8595 17.7605 20.8595 18.6875C20.6277 18.6875 20.3959 18.6875 20.1641 18.6875C19.9324 18.224 19.7006 17.7605 19.4688 17.2969C16.9243 10.6965 12.173 6.75634 5.21486 5.47654C3.81859 5.34221 2.77562 5.80578 2.08595 6.86717C1.6224 7.09892 1.15886 7.33074 0.695315 7.56249C0.463544 7.56249 0.231771 7.56249 0 7.56249C0 5.94011 0 4.31768 0 2.69528C6.56356 1.67953 12.0102 3.76547 16.3399 8.95312C17.7512 11.3926 19.2577 13.7104 20.8595 15.9063Z" fill="#5E5566"/>
<path fill-rule="evenodd" clip-rule="evenodd" d="M44.5002 2.69532C44.5002 4.31771 44.5002 5.94014 44.5002 7.56252C44.2685 7.56252 44.0367 7.56252 43.8049 7.56252C43.3413 7.33077 42.8778 7.09895 42.4143 6.86721C42.3373 6.43792 42.1056 6.09026 41.719 5.82423C36.121 5.20213 31.6015 7.17217 28.1603 11.7344C26.9245 13.514 25.8815 15.3682 25.0314 17.2969C24.7996 17.7605 24.5678 18.224 24.3361 18.6876C23.8905 19.7599 23.1952 20.6871 22.2501 21.4688C21.1298 20.8985 20.6663 19.9714 20.8595 18.6876C20.8595 17.7605 20.8595 16.8334 20.8595 15.9063C21.0913 15.4427 21.3231 14.9792 21.5548 14.5157C22.0184 14.5157 22.4819 14.5157 22.9455 14.5157C23.1421 15.0643 23.4897 15.5279 23.9884 15.9063C27.2452 7.85066 33.1554 3.2152 41.719 2C42.7094 2.08572 43.6366 2.31749 44.5002 2.69532Z" fill="#5C5160"/>
<path fill-rule="evenodd" clip-rule="evenodd" d="M19.4688 17.297C13.1242 14.6445 7.32993 11.1679 2.08594 6.86725C2.77561 5.80585 3.81859 5.34228 5.21486 5.47662C12.173 6.75641 16.9243 10.6966 19.4688 17.297Z" fill="#5F99E7"/>
<path fill-rule="evenodd" clip-rule="evenodd" d="M42.4141 6.86717C37.1701 11.1678 31.3759 14.6444 25.0312 17.2969C25.8813 15.3682 26.9243 13.514 28.1602 11.7344C31.6014 7.17213 36.1209 5.2021 41.7188 5.82419C42.1054 6.09022 42.3372 6.43788 42.4141 6.86717Z" fill="#5F99E6"/>
<path opacity="0.957" fill-rule="evenodd" clip-rule="evenodd" d="M2.08594 6.86719C7.32994 11.1679 13.1242 14.6444 19.4688 17.2969C19.7006 17.7605 19.9324 18.224 20.1641 18.6875C16.4262 18.9997 12.7179 19.4632 9.03909 20.0782C6.82437 20.4122 4.85431 19.9486 3.12892 18.6875C2.31791 14.9848 1.50671 11.2765 0.695312 7.5625C1.15886 7.33075 1.6224 7.09894 2.08594 6.86719Z" fill="#6DB3F0"/>
<path opacity="0.957" fill-rule="evenodd" clip-rule="evenodd" d="M42.4141 6.86719C42.8777 7.09894 43.3412 7.33075 43.8048 7.5625C42.9934 11.2765 42.1822 14.9848 41.3712 18.6875C39.6457 19.9486 37.6757 20.4122 35.461 20.0782C31.7946 19.3128 28.0863 18.8492 24.3359 18.6875C24.5677 18.224 24.7995 17.7605 25.0313 17.2969C31.3759 14.6444 37.1701 11.1679 42.4141 6.86719Z" fill="#6DB3F0"/>
<path opacity="0.854" fill-rule="evenodd" clip-rule="evenodd" d="M22.9451 14.5156C22.4815 14.5156 22.018 14.5156 21.5545 14.5156C20.0125 12.8497 19.3172 10.9955 19.4685 8.95312C20.5551 9.95772 21.4822 11.1166 22.2498 12.4297C23.0313 11.4465 23.7266 10.4036 24.3357 9.30078C24.914 8.82261 25.3776 8.93852 25.7264 9.64844C24.9562 11.4278 24.0292 13.0502 22.9451 14.5156Z" fill="#928692"/>
<path fill-rule="evenodd" clip-rule="evenodd" d="M20.1643 18.6876C20.1643 19.1511 20.1643 19.6146 20.1643 20.0782C16.6842 24.4808 12.5124 28.1891 7.64863 31.2032C3.67203 26.9744 4.13557 23.2661 9.03926 20.0782C12.718 19.4633 16.4264 18.9998 20.1643 18.6876Z" fill="#77C6FE"/>
<path fill-rule="evenodd" clip-rule="evenodd" d="M24.3359 18.6876C28.0863 18.8492 31.7946 19.3128 35.461 20.0782C40.3647 23.2661 40.8282 26.9744 36.8516 31.2032C31.9879 28.1891 27.816 24.4808 24.3359 20.0782C24.3359 19.6146 24.3359 19.1511 24.3359 18.6876Z" fill="#77C6FE"/>
<path opacity="0.959" fill-rule="evenodd" clip-rule="evenodd" d="M20.1641 20.0782C19.5681 25.0111 18.641 29.8783 17.3828 34.6798C12.5903 38.1975 9.34549 37.0387 7.64844 31.2032C12.5122 28.1891 16.6841 24.4808 20.1641 20.0782Z" fill="#6EB3EF"/>
<path opacity="0.959" fill-rule="evenodd" clip-rule="evenodd" d="M24.3359 20.0782C27.816 24.4808 31.9879 28.1891 36.8516 31.2032C35.1546 37.0387 31.9097 38.1975 27.1172 34.6798C25.859 29.8783 24.932 25.0111 24.3359 20.0782Z" fill="#6EB3EF"/>
<path fill-rule="evenodd" clip-rule="evenodd" d="M20.1641 18.6876C20.3958 18.6876 20.6276 18.6876 20.8594 18.6876C20.6662 19.9714 21.1297 20.8985 22.25 21.4688C23.1951 20.6871 23.8904 19.7599 24.336 18.6876C24.336 19.1511 24.336 19.6146 24.336 20.0782C24.932 25.0111 25.8591 29.8783 27.1172 34.6798C24.859 33.4257 23.2366 31.5715 22.25 29.1173C21.2634 31.5715 19.6411 33.4257 17.3828 34.6798C18.641 29.8783 19.568 25.0111 20.1641 20.0782C20.1641 19.6146 20.1641 19.1511 20.1641 18.6876Z" fill="#6B88A5"/>
<path d="M61.4922 28.8516C61.4453 28.7578 61.375 28.5859 61.2812 28.3359C61.1875 28.0859 61.0859 27.8203 60.9766 27.5391C60.8672 27.2578 60.7578 26.9922 60.6484 26.7422C60.5547 26.4922 60.4844 26.3203 60.4375 26.2266C60.4062 26.1641 60.375 26.1016 60.3438 26.0391C60.3281 25.9766 60.2891 25.9297 60.2266 25.8984C59.8828 26.2266 59.5 26.5703 59.0781 26.9297C58.6719 27.2891 58.2344 27.6172 57.7656 27.9141C57.3125 28.1953 56.8359 28.4297 56.3359 28.6172C55.8359 28.7891 55.3359 28.875 54.8359 28.875C54.2891 28.875 53.8594 28.6875 53.5469 28.3125C53.2344 27.9219 52.9922 27.4609 52.8203 26.9297C52.6484 26.3828 52.5391 25.8281 52.4922 25.2656C52.4453 24.7031 52.4219 24.2422 52.4219 23.8828C52.4219 23.1641 52.5391 22.5156 52.7734 21.9375C53.0078 21.3438 53.3359 20.8438 53.7578 20.4375C54.1953 20.0156 54.7109 19.6953 55.3047 19.4766C55.8984 19.2578 56.5625 19.1484 57.2969 19.1484C57.8125 19.1484 58.2656 19.2734 58.6562 19.5234C59.0469 19.7578 59.375 20.0703 59.6406 20.4609C59.9219 20.8359 60.1484 21.25 60.3203 21.7031C60.5078 22.1562 60.6641 22.5938 60.7891 23.0156C60.9297 22.9375 61.0938 22.7578 61.2812 22.4766C61.4844 22.1797 61.6875 21.8594 61.8906 21.5156C62.1094 21.1562 62.3125 20.8047 62.5 20.4609C62.7031 20.1016 62.8594 19.8125 62.9688 19.5938C63.0156 19.5156 63.1172 19.3203 63.2734 19.0078C63.4453 18.6797 63.625 18.3281 63.8125 17.9531C64.0156 17.5781 64.1953 17.2266 64.3516 16.8984C64.5234 16.5703 64.6328 16.3672 64.6797 16.2891C64.6953 16.2578 64.7344 16.2031 64.7969 16.125C64.8594 16.0312 64.8984 15.9688 64.9141 15.9375C64.8984 15.9375 64.8906 15.9297 64.8906 15.9141V15.8672V15.7969C64.1719 15.7969 63.4766 15.7422 62.8047 15.6328C62.1484 15.5234 61.5703 15.3203 61.0703 15.0234C60.5703 14.7266 60.1641 14.3203 59.8516 13.8047C59.5547 13.2891 59.4062 12.6094 59.4062 11.7656C59.4062 11.7188 59.4062 11.6016 59.4062 11.4141C59.4219 11.2266 59.4297 11.1016 59.4297 11.0391C59.4766 10.8828 59.5625 10.7578 59.6875 10.6641C59.8125 10.5547 59.9531 10.4844 60.1094 10.4531C60.25 10.4219 60.3516 10.5 60.4141 10.6875C60.4922 10.875 60.5547 11.125 60.6016 11.4375C60.6641 11.75 60.7344 12.0859 60.8125 12.4453C60.9062 12.8047 61.0547 13.1484 61.2578 13.4766C61.4766 13.7891 61.7578 14.0625 62.1016 14.2969C62.4609 14.5312 62.9375 14.6641 63.5312 14.6953C63.5625 14.6953 63.6641 14.7031 63.8359 14.7188C64.0234 14.7188 64.1797 14.7188 64.3047 14.7188C64.3828 14.7188 64.4922 14.7188 64.6328 14.7188C64.7891 14.7188 64.9375 14.7188 65.0781 14.7188C65.2344 14.7031 65.375 14.6797 65.5 14.6484C65.6406 14.6016 65.7422 14.5391 65.8047 14.4609C65.8984 14.3516 66.0547 14.1641 66.2734 13.8984C66.5078 13.6172 66.7422 13.3281 66.9766 13.0312C67.2109 12.7344 67.4375 12.4531 67.6562 12.1875C67.875 11.9062 68.0312 11.7109 68.125 11.6016C68.3906 11.3359 68.6875 11.0703 69.0156 10.8047C69.3438 10.5391 69.6875 10.3047 70.0469 10.1016C70.4062 9.89844 70.7812 9.73438 71.1719 9.60938C71.5625 9.48438 71.9609 9.42188 72.3672 9.42188C72.6484 9.42188 72.8828 9.47656 73.0703 9.58594C73.2734 9.69531 73.4297 9.84375 73.5391 10.0312C73.6484 10.2031 73.7188 10.4062 73.75 10.6406C73.7969 10.8594 73.8203 11.0859 73.8203 11.3203C73.8203 11.7734 73.7031 12.1719 73.4688 12.5156C73.25 12.8594 72.9609 13.1641 72.6016 13.4297C72.2422 13.6953 71.8516 13.9219 71.4297 14.1094C71.0234 14.2969 70.6328 14.4531 70.2578 14.5781C70.1328 14.625 69.9062 14.6953 69.5781 14.7891C69.25 14.8828 68.8906 14.9922 68.5 15.1172C68.125 15.2266 67.7656 15.3281 67.4219 15.4219C67.0938 15.5156 66.8594 15.5703 66.7188 15.5859C66.6094 15.6953 66.4844 15.8281 66.3438 15.9844C66.2188 16.1406 66.125 16.2812 66.0625 16.4062L63.1797 21.6797C63.1641 21.6797 63.1406 21.6953 63.1094 21.7266C63.0938 21.7422 63.0781 21.7578 63.0625 21.7734C63.0625 21.8047 63.0391 21.8672 62.9922 21.9609C62.9453 22.0391 62.8984 22.1328 62.8516 22.2422C62.8047 22.3359 62.7578 22.4297 62.7109 22.5234C62.6641 22.6172 62.6406 22.6719 62.6406 22.6875C62.5938 22.75 62.5078 22.875 62.3828 23.0625C62.2734 23.2344 62.1484 23.4219 62.0078 23.625C61.8672 23.8125 61.7344 23.9922 61.6094 24.1641C61.5 24.3359 61.4219 24.4531 61.375 24.5156V24.5859V24.6328C61.4844 25.0391 61.5781 25.3906 61.6562 25.6875C61.75 25.9688 61.8359 26.2422 61.9141 26.5078C62.0078 26.7734 62.1172 27.0547 62.2422 27.3516C62.3672 27.6484 62.5312 28 62.7344 28.4062C62.7969 28.5156 62.8828 28.6172 62.9922 28.7109C63.1016 28.8047 63.2109 28.8984 63.3203 28.9922C63.4453 29.0859 63.5469 29.1875 63.625 29.2969C63.7188 29.3906 63.7656 29.4922 63.7656 29.6016C63.7656 29.8828 63.625 30.0234 63.3438 30.0234C62.9375 30.0234 62.5781 29.9062 62.2656 29.6719C61.9531 29.4375 61.6953 29.1641 61.4922 28.8516ZM53.5938 23.6484C53.5938 23.8359 53.6094 24.1484 53.6406 24.5859C53.6719 25.0078 53.7344 25.4453 53.8281 25.8984C53.9375 26.3359 54.0938 26.7266 54.2969 27.0703C54.5156 27.4141 54.8047 27.5859 55.1641 27.5859C55.5859 27.5859 55.9609 27.4922 56.2891 27.3047C56.6328 27.1172 56.9922 26.9453 57.3672 26.7891L59.7812 24.5156V24.4219C59.7812 24.1406 59.7109 23.7734 59.5703 23.3203C59.4453 22.8672 59.2656 22.4219 59.0312 21.9844C58.7969 21.5469 58.5234 21.1797 58.2109 20.8828C57.8984 20.5703 57.5625 20.4141 57.2031 20.4141C56.6875 20.4141 56.2031 20.4766 55.75 20.6016C55.3125 20.7266 54.9375 20.9219 54.625 21.1875C54.3125 21.4531 54.0625 21.7891 53.875 22.1953C53.6875 22.6016 53.5938 23.0859 53.5938 23.6484ZM72.1562 10.6875C71.7812 10.6875 71.4062 10.7656 71.0312 10.9219C70.6562 11.0781 70.2969 11.2812 69.9531 11.5312C69.6094 11.7812 69.2891 12.0547 68.9922 12.3516C68.6953 12.6484 68.4375 12.9297 68.2188 13.1953C68.1562 13.2578 68.0781 13.3516 67.9844 13.4766C67.9062 13.6016 67.8203 13.7188 67.7266 13.8281C67.6484 13.9219 67.5781 14.0156 67.5156 14.1094C67.4531 14.1875 67.4219 14.2266 67.4219 14.2266V14.3438H67.5156C67.5312 14.3438 67.6406 14.3125 67.8438 14.25C68.0469 14.1875 68.2812 14.1172 68.5469 14.0391C68.8281 13.9453 69.1094 13.8594 69.3906 13.7812C69.6719 13.6875 69.8906 13.6094 70.0469 13.5469C70.2812 13.4688 70.5469 13.3672 70.8438 13.2422C71.1562 13.1016 71.4453 12.9375 71.7109 12.75C71.9922 12.5625 72.2266 12.3516 72.4141 12.1172C72.6016 11.8828 72.6953 11.6172 72.6953 11.3203C72.6953 11.0703 72.6562 10.9062 72.5781 10.8281C72.5156 10.7344 72.375 10.6875 72.1562 10.6875ZM68.5703 26.3438C68.6016 26.25 68.6484 26.0859 68.7109 25.8516C68.7891 25.6016 68.8594 25.3359 68.9219 25.0547C69 24.7734 69.0625 24.5078 69.1094 24.2578C69.1719 23.9922 69.2188 23.8125 69.25 23.7188C69.3438 23.3438 69.4531 22.9375 69.5781 22.5C69.7188 22.0625 69.9062 21.6562 70.1406 21.2812C70.375 20.9062 70.6719 20.6016 71.0312 20.3672C71.4062 20.1172 71.8672 19.9922 72.4141 19.9922C72.6172 19.9922 72.7578 20.0703 72.8359 20.2266C72.9297 20.3672 73.0078 20.5234 73.0703 20.6953C73.0703 20.7578 73.0703 20.875 73.0703 21.0469C73.0859 21.2031 73.0938 21.3125 73.0938 21.375C73.0938 22.0469 73.0234 22.6406 72.8828 23.1562C72.7578 23.6719 72.5547 24.1484 72.2734 24.5859C72.0078 25.0234 71.6797 25.4375 71.2891 25.8281C70.8984 26.2031 70.4531 26.6016 69.9531 27.0234C69.9375 27.0703 69.9141 27.1484 69.8828 27.2578C69.8516 27.3672 69.8359 27.4453 69.8359 27.4922V27.5391C69.8359 27.8203 69.8828 28.0469 69.9766 28.2188C70.0703 28.3906 70.1953 28.5312 70.3516 28.6406C70.5234 28.7344 70.7109 28.7969 70.9141 28.8281C71.1328 28.8438 71.3672 28.8516 71.6172 28.8516C72.3516 28.8516 73.0547 28.75 73.7266 28.5469C74.3984 28.3438 75.0156 28.0156 75.5781 27.5625C75.6562 27.4844 75.75 27.375 75.8594 27.2344C75.9844 27.0781 76.1094 26.9219 76.2344 26.7656C76.3594 26.6094 76.4922 26.4766 76.6328 26.3672C76.7734 26.2422 76.9219 26.1797 77.0781 26.1797C77.2344 26.1797 77.3281 26.2422 77.3594 26.3672C77.3906 26.4922 77.4062 26.6172 77.4062 26.7422C77.4062 27.0859 77.2969 27.4141 77.0781 27.7266C76.875 28.0234 76.6016 28.2969 76.2578 28.5469C75.9297 28.7812 75.5469 28.9922 75.1094 29.1797C74.6875 29.3672 74.2656 29.5234 73.8438 29.6484C73.4219 29.7734 73.0156 29.8672 72.625 29.9297C72.25 29.9922 71.9297 30.0234 71.6641 30.0234C70.8359 30.0234 70.1406 29.8906 69.5781 29.625C69.0312 29.3438 68.6562 28.7891 68.4531 27.9609L68.5703 26.3438ZM71.9219 21.7266C71.6094 22.0078 71.3594 22.2656 71.1719 22.5C71 22.7188 70.8594 22.9531 70.75 23.2031C70.6562 23.4375 70.5703 23.6953 70.4922 23.9766C70.4297 24.2578 70.3594 24.5859 70.2812 24.9609C70.5781 24.7266 70.8203 24.4922 71.0078 24.2578C71.2109 24.0234 71.375 23.7812 71.5 23.5312C71.625 23.2812 71.7188 23.0156 71.7812 22.7344C71.8438 22.4375 71.8906 22.1016 71.9219 21.7266ZM77.5938 23.7188C77.625 23.6562 77.6875 23.5625 77.7812 23.4375C77.875 23.2969 77.9219 23.1797 77.9219 23.0859V23.0156C77.9219 23 77.9062 22.9844 77.875 22.9688C77.8438 22.9375 77.8203 22.9219 77.8047 22.9219H77.3828C76.9766 23.0469 76.5234 23.1328 76.0234 23.1797C75.5078 23.2266 75.0156 23.2422 74.5469 23.2266C74.0625 23.2109 73.6484 23.1719 73.3047 23.1094C72.9609 23.0312 72.7578 22.9453 72.6953 22.8516C72.6328 22.7578 72.75 22.6484 73.0469 22.5234C73.3438 22.3828 73.9062 22.2422 74.7344 22.1016C74.7812 22.1016 74.8906 22.0859 75.0625 22.0547C75.2188 22.0078 75.3984 21.9688 75.6016 21.9375C75.7891 21.9062 75.9688 21.875 76.1406 21.8438C76.3125 21.7969 76.4219 21.7734 76.4688 21.7734C76.5312 21.7578 76.6641 21.75 76.8672 21.75C77.0703 21.7344 77.2734 21.7188 77.4766 21.7031C77.6953 21.6875 77.8984 21.6797 78.0859 21.6797C78.2891 21.6797 78.4297 21.6797 78.5078 21.6797L78.625 21.5391L80.4531 18.4688C80.5156 18.3594 80.625 18.2734 80.7812 18.2109C80.9531 18.1484 81.0859 18.1172 81.1797 18.1172C81.3828 18.1172 81.5234 18.2031 81.6016 18.375C81.6797 18.5312 81.7188 18.6875 81.7188 18.8438C81.7188 18.8594 81.7109 18.875 81.6953 18.8906C81.6953 18.9062 81.6953 18.9219 81.6953 18.9375V19.0312L80.6641 21.5391V21.6797C80.6953 21.5859 80.75 21.5391 80.8281 21.5391C80.9219 21.5391 80.9922 21.5391 81.0391 21.5391C81.2734 21.5391 81.5 21.6172 81.7188 21.7734C81.9375 21.9297 82.0469 22.1406 82.0469 22.4062C82.0469 22.5312 82.0078 22.6328 81.9297 22.7109C81.8516 22.7891 81.7578 22.8516 81.6484 22.8984C81.5391 22.9453 81.4219 22.9844 81.2969 23.0156C81.1719 23.0312 81.0625 23.0391 80.9688 23.0391C80.7812 23.0391 80.6016 23.0156 80.4297 22.9688C80.2734 22.9219 80.1016 22.8984 79.9141 22.8984C79.7422 22.8984 79.5859 22.9922 79.4453 23.1797C79.3047 23.3516 79.1719 23.5859 79.0469 23.8828C78.9375 24.1641 78.8438 24.4844 78.7656 24.8438C78.6875 25.2031 78.6172 25.5547 78.5547 25.8984C78.4922 26.2422 78.4453 26.5625 78.4141 26.8594C78.3984 27.1562 78.3906 27.3828 78.3906 27.5391C78.3906 27.6016 78.3906 27.7266 78.3906 27.9141C78.4062 28.1016 78.4141 28.2266 78.4141 28.2891C78.4297 28.3828 78.4688 28.4688 78.5312 28.5469C78.5938 28.6094 78.6562 28.6797 78.7188 28.7578H79.2578C79.8828 28.7578 80.5 28.6172 81.1094 28.3359C81.7344 28.0547 82.3203 27.7344 82.8672 27.375C82.8984 27.3594 82.9688 27.2891 83.0781 27.1641C83.2031 27.0234 83.3359 26.8906 83.4766 26.7656C83.6172 26.625 83.7422 26.5 83.8516 26.3906C83.9766 26.2812 84.0625 26.2266 84.1094 26.2266C84.2188 26.2266 84.3203 26.2812 84.4141 26.3906C84.5078 26.5 84.5547 26.6172 84.5547 26.7422C84.5547 27.0391 84.4453 27.3281 84.2266 27.6094C84.0234 27.8906 83.7578 28.1562 83.4297 28.4062C83.1016 28.6406 82.7266 28.8594 82.3047 29.0625C81.8828 29.2656 81.4609 29.4375 81.0391 29.5781C80.6328 29.7188 80.2422 29.8281 79.8672 29.9062C79.5078 29.9844 79.2109 30.0234 78.9766 30.0234C78.7578 30.0234 78.5312 30 78.2969 29.9531C78.0625 29.8906 77.8516 29.7969 77.6641 29.6719C77.4766 29.5469 77.3203 29.3906 77.1953 29.2031C77.0703 29.0156 77.0078 28.7812 77.0078 28.5V25.8984L77.5938 23.7188ZM83.9922 25.0781C84.0078 25 84.0547 24.8594 84.1328 24.6562C84.2109 24.4531 84.2891 24.2344 84.3672 24C84.4609 23.7656 84.5469 23.5469 84.625 23.3438C84.7031 23.1406 84.7578 23 84.7891 22.9219C84.8828 22.6719 84.9688 22.5078 85.0469 22.4297C85.1406 22.3516 85.3047 22.3125 85.5391 22.3125C85.7891 22.3125 85.9531 22.3984 86.0312 22.5703C86.1094 22.7422 86.1484 22.9453 86.1484 23.1797C86.1484 23.5859 86.0859 23.9609 85.9609 24.3047C85.8516 24.6328 85.7266 24.9688 85.5859 25.3125C85.4453 25.6406 85.3125 26 85.1875 26.3906C85.0781 26.7656 85.0234 27.2031 85.0234 27.7031C85.0234 27.7656 85.0234 27.8594 85.0234 27.9844C85.0234 28.0938 85.0312 28.2109 85.0469 28.3359C85.0625 28.4453 85.0938 28.5469 85.1406 28.6406C85.1875 28.7188 85.25 28.7578 85.3281 28.7578C85.7344 28.7578 86.1406 28.6797 86.5469 28.5234C86.9688 28.3516 87.375 28.1562 87.7656 27.9375C88.1719 27.7031 88.5547 27.4531 88.9141 27.1875C89.2891 26.9062 89.625 26.6641 89.9219 26.4609C90.0312 26.3828 90.1094 26.3047 90.1562 26.2266C90.2188 26.1484 90.2734 26.0781 90.3203 26.0156C90.3672 25.9375 90.4219 25.875 90.4844 25.8281C90.5625 25.7656 90.6797 25.7344 90.8359 25.7344C91.0391 25.7344 91.2031 25.7812 91.3281 25.875C91.4688 25.9531 91.5391 26.1016 91.5391 26.3203C91.5391 26.4141 91.5312 26.5 91.5156 26.5781C91.5156 26.6562 91.4766 26.7266 91.3984 26.7891C91.3828 26.8359 91.3203 26.8984 91.2109 26.9766C91.1172 27.0547 91.0156 27.1406 90.9062 27.2344C90.7969 27.3125 90.6953 27.3906 90.6016 27.4688C90.5078 27.5312 90.4375 27.5703 90.3906 27.5859C90.375 27.5859 90.3281 27.6094 90.25 27.6562C90.1875 27.6875 90.1484 27.7031 90.1328 27.7031C90.1172 27.7188 90.0938 27.7422 90.0625 27.7734C90.0469 27.7891 90.0391 27.8047 90.0391 27.8203C89.7109 28.0703 89.3516 28.3281 88.9609 28.5938C88.5859 28.8438 88.1875 29.0781 87.7656 29.2969C87.3438 29.5 86.9062 29.6719 86.4531 29.8125C86.0156 29.9531 85.5781 30.0234 85.1406 30.0234C84.7656 30.0234 84.4766 29.9297 84.2734 29.7422C84.0859 29.5391 83.9453 29.2891 83.8516 28.9922C83.7578 28.6953 83.7031 28.3828 83.6875 28.0547C83.6719 27.7266 83.6641 27.4297 83.6641 27.1641L83.9922 25.0781ZM88.3984 17.2734C88.3984 17.2891 88.3984 17.3281 88.3984 17.3906C88.3984 17.4531 88.3906 17.5156 88.375 17.5781C88.3594 17.6406 88.3438 17.7031 88.3281 17.7656C88.3281 17.8125 88.3281 17.8438 88.3281 17.8594C88.1719 18.4375 87.9375 18.8984 87.625 19.2422C87.3281 19.5859 87 19.8516 86.6406 20.0391C86.2969 20.2109 85.9531 20.3203 85.6094 20.3672C85.2812 20.4141 85.0078 20.4141 84.7891 20.3672C84.5859 20.3047 84.4688 20.2266 84.4375 20.1328C84.4062 20.0391 84.5312 19.9375 84.8125 19.8281C85.1094 19.7031 85.4062 19.4922 85.7031 19.1953C86 18.8828 86.2812 18.5547 86.5469 18.2109C86.8125 17.8516 87.0547 17.5156 87.2734 17.2031C87.5078 16.875 87.7109 16.6328 87.8828 16.4766C88.0547 16.3203 88.1797 16.2969 88.2578 16.4062C88.3516 16.5 88.3984 16.7891 88.3984 17.2734ZM92.3125 26.7891C92.3906 25.9922 92.5703 25.2344 92.8516 24.5156C93.1484 23.7969 93.4844 23.1797 93.8594 22.6641C94.25 22.1484 94.6406 21.75 95.0312 21.4688C95.4375 21.1875 95.7891 21.1016 96.0859 21.2109C96.1641 21.1641 96.2266 21.125 96.2734 21.0938C96.3359 21.0469 96.3828 21.0078 96.4141 20.9766C96.4609 20.9297 96.5078 20.8984 96.5547 20.8828C96.6172 20.8516 96.7031 20.8359 96.8125 20.8359C97.0312 20.8359 97.2266 20.9062 97.3984 21.0469C97.5703 21.1875 97.7188 21.3594 97.8438 21.5625C97.9844 21.7656 98.0859 21.9844 98.1484 22.2188C98.2266 22.4375 98.2656 22.6406 98.2656 22.8281C98.2656 23.0312 98.1875 23.1719 98.0312 23.25C97.875 23.3281 97.6953 23.3672 97.4922 23.3672C97.3672 23.3672 97.2578 23.3438 97.1641 23.2969C97.0703 23.2344 96.9844 23.1641 96.9062 23.0859C96.8438 23.0078 96.7734 22.9297 96.6953 22.8516C96.6172 22.7734 96.5156 22.7188 96.3906 22.6875H96.3672H96.2969C96.2812 22.7031 96.2422 22.7422 96.1797 22.8047C96.1328 22.8516 96.1016 22.8906 96.0859 22.9219C95.7578 23.3125 95.4531 23.6641 95.1719 23.9766C94.8906 24.2734 94.6406 24.5781 94.4219 24.8906C94.2188 25.2031 94.0547 25.5391 93.9297 25.8984C93.8203 26.2578 93.7656 26.6875 93.7656 27.1875C93.7656 27.2344 93.7656 27.3047 93.7656 27.3984C93.7656 27.4922 93.7656 27.5859 93.7656 27.6797C93.7812 27.7734 93.7891 27.8672 93.7891 27.9609C93.7891 28.0547 93.7891 28.125 93.7891 28.1719C93.8203 28.3281 93.9062 28.4453 94.0469 28.5234C94.2031 28.6016 94.3438 28.6797 94.4688 28.7578C94.5156 28.7578 94.6328 28.7656 94.8203 28.7812C95.0078 28.7812 95.1172 28.7812 95.1484 28.7812C95.7109 28.7812 96.375 28.6953 97.1406 28.5234C97.9062 28.3359 98.6719 28.0938 99.4375 27.7969C100.219 27.5 100.953 27.1484 101.641 26.7422C102.328 26.3203 102.875 25.8828 103.281 25.4297C103.375 25.3047 103.453 25.1328 103.516 24.9141C103.594 24.6953 103.672 24.4844 103.75 24.2812C103.844 24.0625 103.945 23.875 104.055 23.7188C104.164 23.5625 104.328 23.4844 104.547 23.4844C104.75 23.4844 104.875 23.5703 104.922 23.7422C104.984 23.8984 105.016 24.0547 105.016 24.2109C105.016 24.7109 104.891 25.1641 104.641 25.5703C104.406 25.9766 104.109 26.3438 103.75 26.6719C103.391 27 102.992 27.2891 102.555 27.5391C102.133 27.7891 101.727 28 101.336 28.1719C101.227 28.2031 100.984 28.2891 100.609 28.4297C100.25 28.5703 99.8594 28.7188 99.4375 28.875C99.0156 29.0312 98.6016 29.1875 98.1953 29.3438C97.8047 29.4844 97.5156 29.5938 97.3281 29.6719C97.0781 29.75 96.8672 29.8125 96.6953 29.8594C96.5234 29.8906 96.3672 29.9219 96.2266 29.9531C96.0859 29.9844 95.9375 30 95.7812 30C95.6406 30.0156 95.4688 30.0234 95.2656 30.0234C94.7031 30.0234 94.2344 29.9531 93.8594 29.8125C93.5 29.6719 93.2109 29.4688 92.9922 29.2031C92.7734 28.9219 92.6094 28.5859 92.5 28.1953C92.4062 27.7891 92.3438 27.3203 92.3125 26.7891ZM104.594 25.0781C104.609 25 104.656 24.8594 104.734 24.6562C104.812 24.4531 104.891 24.2344 104.969 24C105.062 23.7656 105.148 23.5469 105.227 23.3438C105.305 23.1406 105.359 23 105.391 22.9219C105.484 22.6719 105.57 22.5078 105.648 22.4297C105.742 22.3516 105.906 22.3125 106.141 22.3125C106.391 22.3125 106.555 22.3984 106.633 22.5703C106.711 22.7422 106.75 22.9453 106.75 23.1797C106.75 23.5859 106.688 23.9609 106.562 24.3047C106.453 24.6328 106.328 24.9688 106.188 25.3125C106.047 25.6406 105.914 26 105.789 26.3906C105.68 26.7656 105.625 27.2031 105.625 27.7031C105.625 27.7656 105.625 27.8594 105.625 27.9844C105.625 28.0938 105.633 28.2109 105.648 28.3359C105.664 28.4453 105.695 28.5469 105.742 28.6406C105.789 28.7188 105.852 28.7578 105.93 28.7578C106.336 28.7578 106.742 28.6797 107.148 28.5234C107.57 28.3516 107.977 28.1562 108.367 27.9375C108.773 27.7031 109.156 27.4531 109.516 27.1875C109.891 26.9062 110.227 26.6641 110.523 26.4609C110.633 26.3828 110.711 26.3047 110.758 26.2266C110.82 26.1484 110.875 26.0781 110.922 26.0156C110.969 25.9375 111.023 25.875 111.086 25.8281C111.164 25.7656 111.281 25.7344 111.438 25.7344C111.641 25.7344 111.805 25.7812 111.93 25.875C112.07 25.9531 112.141 26.1016 112.141 26.3203C112.141 26.4141 112.133 26.5 112.117 26.5781C112.117 26.6562 112.078 26.7266 112 26.7891C111.984 26.8359 111.922 26.8984 111.812 26.9766C111.719 27.0547 111.617 27.1406 111.508 27.2344C111.398 27.3125 111.297 27.3906 111.203 27.4688C111.109 27.5312 111.039 27.5703 110.992 27.5859C110.977 27.5859 110.93 27.6094 110.852 27.6562C110.789 27.6875 110.75 27.7031 110.734 27.7031C110.719 27.7188 110.695 27.7422 110.664 27.7734C110.648 27.7891 110.641 27.8047 110.641 27.8203C110.312 28.0703 109.953 28.3281 109.562 28.5938C109.188 28.8438 108.789 29.0781 108.367 29.2969C107.945 29.5 107.508 29.6719 107.055 29.8125C106.617 29.9531 106.18 30.0234 105.742 30.0234C105.367 30.0234 105.078 29.9297 104.875 29.7422C104.688 29.5391 104.547 29.2891 104.453 28.9922C104.359 28.6953 104.305 28.3828 104.289 28.0547C104.273 27.7266 104.266 27.4297 104.266 27.1641L104.594 25.0781ZM105.719 18.9141C105.719 18.6328 105.773 18.4453 105.883 18.3516C105.992 18.2578 106.188 18.2109 106.469 18.2109C106.609 18.2109 106.75 18.2422 106.891 18.3047C107.031 18.3516 107.102 18.4766 107.102 18.6797C107.102 18.8828 107 19.0703 106.797 19.2422C106.609 19.4141 106.422 19.5 106.234 19.5C106.047 19.5 105.914 19.4453 105.836 19.3359C105.758 19.2109 105.719 19.0703 105.719 18.9141ZM112.961 29.2969C112.961 29.25 112.961 29.1328 112.961 28.9453C112.961 28.7578 112.961 28.6328 112.961 28.5703C112.695 27.6328 112.656 26.7109 112.844 25.8047C113.047 24.8984 113.398 24.0859 113.898 23.3672C114.414 22.6328 115.062 22.0234 115.844 21.5391C116.641 21.0391 117.508 20.7344 118.445 20.625H118.867C119.211 20.625 119.492 20.7031 119.711 20.8594C119.945 21 120.125 21.1875 120.25 21.4219C120.391 21.6562 120.484 21.9219 120.531 22.2188C120.594 22.5156 120.625 22.8125 120.625 23.1094C120.625 23.5156 120.578 23.9141 120.484 24.3047C120.406 24.6797 120.312 25.0625 120.203 25.4531C120.109 25.8438 120.016 26.2344 119.922 26.625C119.844 27 119.805 27.3984 119.805 27.8203V27.9609C119.82 27.9922 119.836 28.0859 119.852 28.2422C119.883 28.3828 119.906 28.4688 119.922 28.5C119.953 28.5 120.031 28.5078 120.156 28.5234C120.281 28.5234 120.359 28.5234 120.391 28.5234C120.547 28.5234 120.695 28.5234 120.836 28.5234C120.992 28.5078 121.148 28.4688 121.305 28.4062L125.758 26.3438C125.773 26.3438 125.797 26.3438 125.828 26.3438C125.875 26.3281 125.906 26.3203 125.922 26.3203C126.078 26.3203 126.203 26.3672 126.297 26.4609C126.406 26.5547 126.461 26.6797 126.461 26.8359C126.461 26.9141 126.453 26.9922 126.438 27.0703C126.438 27.1328 126.398 27.1953 126.32 27.2578C126.211 27.3359 126.008 27.4453 125.711 27.5859C125.43 27.7266 125.125 27.8828 124.797 28.0547C124.469 28.2266 124.156 28.3906 123.859 28.5469C123.578 28.7031 123.375 28.8047 123.25 28.8516C123.031 28.9766 122.789 29.0938 122.523 29.2031C122.258 29.2969 121.984 29.3906 121.703 29.4844C121.422 29.5781 121.141 29.6562 120.859 29.7188C120.594 29.7656 120.352 29.7891 120.133 29.7891C119.789 29.7891 119.508 29.7344 119.289 29.625C119.07 29.5 118.906 29.3438 118.797 29.1562C118.688 28.9531 118.609 28.7188 118.562 28.4531C118.531 28.1719 118.531 27.8828 118.562 27.5859C118.25 27.8359 117.914 28.1016 117.555 28.3828C117.195 28.6641 116.82 28.9219 116.43 29.1562C116.039 29.3906 115.641 29.5938 115.234 29.7656C114.828 29.9375 114.414 30.0234 113.992 30.0234C113.758 30.0234 113.547 29.9688 113.359 29.8594C113.172 29.7344 113.039 29.5469 112.961 29.2969ZM114.227 28.8047C114.586 28.8047 114.984 28.7031 115.422 28.5C115.859 28.2812 116.289 28.0156 116.711 27.7031C117.133 27.3906 117.516 27.0625 117.859 26.7188C118.203 26.3594 118.469 26.0391 118.656 25.7578C118.672 25.2891 118.734 24.8438 118.844 24.4219C118.969 23.9844 119.031 23.5391 119.031 23.0859C119.031 23.0547 119.023 23.0078 119.008 22.9453C119.008 22.8828 119.008 22.8359 119.008 22.8047C118.805 22.6328 118.633 22.5312 118.492 22.5C118.352 22.4688 118.164 22.4531 117.93 22.4531C117.898 22.4531 117.828 22.4531 117.719 22.4531C117.625 22.4531 117.562 22.4609 117.531 22.4766C117.438 22.5547 117.281 22.7031 117.062 22.9219C116.844 23.125 116.609 23.3516 116.359 23.6016C116.125 23.8516 115.898 24.0859 115.68 24.3047C115.477 24.5234 115.336 24.6719 115.258 24.75C115.242 24.75 115.211 24.7812 115.164 24.8438C115.117 24.8906 115.062 24.9531 115 25.0312C114.953 25.1094 114.906 25.1875 114.859 25.2656C114.828 25.3281 114.805 25.3828 114.789 25.4297L114.227 28.1719V28.8047ZM136.68 20.8125C136.523 19.9688 136.547 19.0859 136.75 18.1641C136.969 17.2266 137.312 16.2969 137.781 15.375C138.25 14.4531 138.828 13.5703 139.516 12.7266C140.203 11.8672 140.938 11.0938 141.719 10.4062C142.516 9.71875 143.344 9.14062 144.203 8.67188C145.078 8.20312 145.93 7.88281 146.758 7.71094C147.008 7.71094 147.227 7.78906 147.414 7.94531C147.617 8.10156 147.789 8.29688 147.93 8.53125C148.07 8.76562 148.172 9.01562 148.234 9.28125C148.312 9.54688 148.352 9.78906 148.352 10.0078V12.2812C148.352 12.4375 148.289 12.5391 148.164 12.5859C148.039 12.6172 147.93 12.6328 147.836 12.6328C147.727 12.6328 147.594 12.6172 147.438 12.5859C147.281 12.5547 147.203 12.4531 147.203 12.2812C147.203 12.2188 147.195 12.1172 147.18 11.9766C147.164 11.8359 147.148 11.6797 147.133 11.5078C147.117 11.3359 147.102 11.1719 147.086 11.0156C147.086 10.8594 147.086 10.7578 147.086 10.7109C147.086 10.6797 147.078 10.5781 147.062 10.4062C147.062 10.2188 147.047 10.0312 147.016 9.84375C146.984 9.65625 146.938 9.48438 146.875 9.32812C146.812 9.17188 146.734 9.09375 146.641 9.09375H145.82C145.82 9.09375 145.75 9.13281 145.609 9.21094C145.469 9.27344 145.305 9.35156 145.117 9.44531C144.93 9.53906 144.742 9.64062 144.555 9.75C144.367 9.84375 144.227 9.92969 144.133 10.0078C144.086 10.0391 144.008 10.0938 143.898 10.1719C143.805 10.25 143.703 10.3281 143.594 10.4062C143.484 10.4844 143.383 10.5625 143.289 10.6406C143.195 10.7188 143.125 10.7734 143.078 10.8047C142.234 11.6172 141.5 12.375 140.875 13.0781C140.25 13.7656 139.727 14.4844 139.305 15.2344C138.883 15.9844 138.562 16.7969 138.344 17.6719C138.141 18.5312 138.039 19.5547 138.039 20.7422C138.039 21.2109 138.062 21.7344 138.109 22.3125C138.172 22.875 138.258 23.4531 138.367 24.0469C138.492 24.6406 138.664 25.2266 138.883 25.8047C139.102 26.3672 139.375 26.8672 139.703 27.3047C140.031 27.7422 140.43 28.0938 140.898 28.3594C141.367 28.625 141.922 28.7578 142.562 28.7578H143.078C143.781 28.5234 144.398 28.3125 144.93 28.125C145.477 27.9219 145.961 27.7188 146.383 27.5156C146.82 27.3125 147.211 27.0938 147.555 26.8594C147.914 26.6094 148.258 26.3125 148.586 25.9688C148.93 25.625 149.281 25.2109 149.641 24.7266C150 24.2422 150.406 23.6719 150.859 23.0156C150.875 23.0156 150.898 23.0156 150.93 23.0156C150.961 23 150.992 22.9922 151.023 22.9922C151.305 22.9922 151.445 23.1328 151.445 23.4141C151.445 23.7734 151.352 24.1797 151.164 24.6328C150.992 25.0703 150.664 25.5547 150.18 26.0859C149.711 26.6172 149.047 27.1797 148.188 27.7734C147.344 28.3516 146.258 28.9375 144.93 29.5312C144.68 29.6406 144.461 29.7344 144.273 29.8125C144.086 29.875 143.906 29.9219 143.734 29.9531C143.562 29.9844 143.383 30 143.195 30C143.023 30.0156 142.828 30.0234 142.609 30.0234C141.797 30.0234 141.086 29.8828 140.477 29.6016C139.883 29.3203 139.367 28.9453 138.93 28.4766C138.492 27.9922 138.125 27.4453 137.828 26.8359C137.547 26.2109 137.32 25.5547 137.148 24.8672C136.977 24.1641 136.852 23.4688 136.773 22.7812C136.711 22.0781 136.68 21.4219 136.68 20.8125ZM151.023 29.1094C151.023 28.8125 151.125 28.5703 151.328 28.3828C151.547 28.1953 151.805 28.0469 152.102 27.9375C152.414 27.8281 152.727 27.75 153.039 27.7031C153.367 27.6406 153.648 27.6094 153.883 27.6094C154.023 27.6094 154.172 27.6172 154.328 27.6328C154.5 27.6328 154.656 27.6641 154.797 27.7266C154.953 27.7734 155.086 27.8516 155.195 27.9609C155.305 28.0547 155.359 28.2031 155.359 28.4062C155.359 28.6875 155.297 28.9297 155.172 29.1328C155.047 29.3359 154.891 29.5078 154.703 29.6484C154.516 29.7734 154.305 29.8672 154.07 29.9297C153.836 29.9922 153.594 30.0234 153.344 30.0234C153.172 30.0234 152.953 30.0234 152.688 30.0234C152.422 30.0391 152.164 30.0234 151.914 29.9766C151.68 29.9297 151.469 29.8438 151.281 29.7188C151.109 29.5781 151.023 29.375 151.023 29.1094ZM153.555 28.7578C153.523 28.7578 153.469 28.7578 153.391 28.7578C153.328 28.7578 153.258 28.7656 153.18 28.7812C153.102 28.7969 153.023 28.8281 152.945 28.875C152.867 28.9062 152.82 28.9609 152.805 29.0391H153.555V28.7578ZM161.898 26.1094L157.328 29.0859H157.188C157.031 29.0859 156.875 29.0469 156.719 28.9688C156.578 28.8906 156.508 28.7578 156.508 28.5703C156.508 28.4453 156.539 28.3359 156.602 28.2422C156.68 28.1328 156.773 28.0391 156.883 27.9609C157.008 27.8672 157.234 27.7266 157.562 27.5391C157.891 27.3516 158.234 27.1484 158.594 26.9297C158.953 26.6953 159.297 26.4844 159.625 26.2969C159.969 26.1094 160.203 25.9766 160.328 25.8984C160.391 25.8359 160.484 25.7656 160.609 25.6875C160.734 25.5938 160.844 25.5078 160.938 25.4297C161.047 25.3359 161.141 25.2578 161.219 25.1953C161.297 25.1328 161.336 25.0938 161.336 25.0781L159.531 21.4219C159.453 21.3125 159.406 21.2266 159.391 21.1641C159.391 21.0859 159.391 20.9844 159.391 20.8594C159.391 20.3906 159.617 20.1562 160.07 20.1562C160.133 20.1562 160.273 20.2031 160.492 20.2969C160.727 20.375 161.008 20.4922 161.336 20.6484C161.664 20.7891 162.008 20.9453 162.367 21.1172C162.727 21.2891 163.055 21.4453 163.352 21.5859C163.648 21.7266 163.898 21.8516 164.102 21.9609C164.305 22.0547 164.406 22.1016 164.406 22.1016L166.492 19.9453C166.539 19.7578 166.672 19.5312 166.891 19.2656C167.125 19 167.367 18.7188 167.617 18.4219C167.867 18.125 168.086 17.8281 168.273 17.5312C168.461 17.2188 168.555 16.9375 168.555 16.6875V16.6172L166.938 12.8438C166.781 12.4844 166.68 12.1016 166.633 11.6953C166.602 11.2734 166.586 10.8594 166.586 10.4531C166.586 10.1094 166.641 9.76562 166.75 9.42188C166.859 9.0625 167.016 8.74219 167.219 8.46094C167.438 8.17969 167.695 7.95313 167.992 7.78125C168.289 7.59375 168.641 7.5 169.047 7.5C169.469 7.5 169.812 7.625 170.078 7.875C170.359 8.10938 170.578 8.40625 170.734 8.76562C170.906 9.125 171.023 9.50781 171.086 9.91406C171.148 10.3047 171.18 10.6641 171.18 10.9922C171.18 11.9297 171.07 12.8281 170.852 13.6875C170.648 14.5312 170.367 15.3984 170.008 16.2891V16.6172C170.367 17.2891 170.734 17.9844 171.109 18.7031C171.484 19.4219 171.82 20.1719 172.117 20.9531C172.414 21.7188 172.656 22.4922 172.844 23.2734C173.031 24.0391 173.125 24.8125 173.125 25.5938C173.125 26.2031 173.023 26.7734 172.82 27.3047C172.633 27.8203 172.359 28.2734 172 28.6641C171.641 29.0547 171.203 29.3594 170.688 29.5781C170.188 29.7969 169.625 29.9062 169 29.9062C168.297 29.9062 167.625 29.8047 166.984 29.6016C166.359 29.3828 165.75 29.1016 165.156 28.7578C164.578 28.3984 164.023 27.9922 163.492 27.5391C162.977 27.0859 162.492 26.6094 162.039 26.1094H161.898ZM163.07 25.3125C163.07 25.3281 163.109 25.3828 163.188 25.4766C163.281 25.5703 163.383 25.6797 163.492 25.8047C163.617 25.9141 163.742 26.0312 163.867 26.1562C163.992 26.2812 164.102 26.3828 164.195 26.4609C164.242 26.5078 164.32 26.5781 164.43 26.6719C164.555 26.75 164.672 26.8438 164.781 26.9531C164.906 27.0469 165.016 27.1406 165.109 27.2344C165.219 27.3125 165.289 27.3594 165.32 27.375C165.414 27.4219 165.555 27.5 165.742 27.6094C165.93 27.7188 166.117 27.8281 166.305 27.9375C166.492 28.0469 166.672 28.1484 166.844 28.2422C167.016 28.3359 167.117 28.3906 167.148 28.4062C167.508 28.5625 167.836 28.6641 168.133 28.7109C168.445 28.7422 168.758 28.7578 169.07 28.7578C169.539 28.7578 169.938 28.6719 170.266 28.5C170.609 28.3125 170.891 28.0703 171.109 27.7734C171.328 27.4609 171.484 27.1094 171.578 26.7188C171.688 26.3125 171.742 25.9062 171.742 25.5C171.742 25.0625 171.703 24.6094 171.625 24.1406C171.562 23.6719 171.453 23.2266 171.297 22.8047L169.258 17.9062L167.406 20.5078L163.07 25.2188V25.3125ZM161.242 22.2188C161.242 22.25 161.25 22.3125 161.266 22.4062C161.297 22.4844 161.32 22.5391 161.336 22.5703C161.398 22.6797 161.477 22.8281 161.57 23.0156C161.68 23.2031 161.781 23.3828 161.875 23.5547C161.984 23.7109 162.07 23.8594 162.133 24C162.211 24.125 162.258 24.1875 162.273 24.1875H162.367C162.414 24.1875 162.508 24.125 162.648 24C162.789 23.8594 162.938 23.7188 163.094 23.5781C163.25 23.4219 163.391 23.2812 163.516 23.1562C163.641 23.0156 163.711 22.9375 163.727 22.9219L163.609 22.8047L161.57 22.2188H161.242ZM167.828 10.4297C167.828 11.3047 167.961 12.1016 168.227 12.8203C168.492 13.5234 168.828 14.2578 169.234 15.0234C169.312 14.9766 169.383 14.8828 169.445 14.7422C169.508 14.5859 169.562 14.4219 169.609 14.25C169.656 14.0625 169.695 13.8906 169.727 13.7344C169.758 13.5781 169.781 13.4844 169.797 13.4531C169.797 13.4219 169.805 13.3438 169.82 13.2188C169.852 13.0938 169.875 12.9531 169.891 12.7969C169.906 12.625 169.922 12.4609 169.938 12.3047C169.969 12.1484 169.992 12.0312 170.008 11.9531V11.8828C170.008 11.8203 170 11.625 169.984 11.2969C169.984 10.9688 169.961 10.6172 169.914 10.2422C169.867 9.85156 169.781 9.50781 169.656 9.21094C169.531 8.89844 169.344 8.74219 169.094 8.74219C168.844 8.74219 168.633 8.78906 168.461 8.88281C168.289 8.97656 168.156 9.10156 168.062 9.25781C167.984 9.41406 167.922 9.59375 167.875 9.79688C167.844 10 167.828 10.2109 167.828 10.4297ZM174.25 29.1094C174.25 28.8125 174.352 28.5703 174.555 28.3828C174.773 28.1953 175.031 28.0469 175.328 27.9375C175.641 27.8281 175.953 27.75 176.266 27.7031C176.594 27.6406 176.875 27.6094 177.109 27.6094C177.25 27.6094 177.398 27.6172 177.555 27.6328C177.727 27.6328 177.883 27.6641 178.023 27.7266C178.18 27.7734 178.312 27.8516 178.422 27.9609C178.531 28.0547 178.586 28.2031 178.586 28.4062C178.586 28.6875 178.523 28.9297 178.398 29.1328C178.273 29.3359 178.117 29.5078 177.93 29.6484C177.742 29.7734 177.531 29.8672 177.297 29.9297C177.062 29.9922 176.82 30.0234 176.57 30.0234C176.398 30.0234 176.18 30.0234 175.914 30.0234C175.648 30.0391 175.391 30.0234 175.141 29.9766C174.906 29.9297 174.695 29.8438 174.508 29.7188C174.336 29.5781 174.25 29.375 174.25 29.1094ZM176.781 28.7578C176.75 28.7578 176.695 28.7578 176.617 28.7578C176.555 28.7578 176.484 28.7656 176.406 28.7812C176.328 28.7969 176.25 28.8281 176.172 28.875C176.094 28.9062 176.047 28.9609 176.031 29.0391H176.781V28.7578Z" fill="#080808"/>
</svg>
